<svg width="120" height="24" viewBox="0 0 120 24" fill="none" xmlns="http://www.w3.org/2000/svg">
<g clip-path="url(#clip0_1_2)">
<rect width="120" height="24" fill="white"/>
<g clip-path="url(#clip1_1_2)">
<path d="M537 -250H-829V518H537V-250Z" fill="#F8F8F8"/>
<path d="M108 22C113.523 22 118 17.5228 118 12C118 6.47715 113.523 2 108 2C102.477 2 98 6.47715 98 12C98 17.5228 102.477 22 108 22Z" stroke="black" stroke-width="2" stroke-linecap="round" stroke-linejoin="round"/>
<path opacity="0.3" d="M108 6V12L111 15" stroke="black" stroke-width="2" stroke-linecap="round" stroke-linejoin="round"/>
</g>
<g clip-path="url(#clip2_1_2)">
<path d="M226 -250H-1140V518H226V-250Z" fill="#F8F8F8"/>
<path d="M12 17C14.7614 17 17 14.7614 17 12C17 9.23858 14.7614 7 12 7C9.23858 7 7 9.23858 7 12C7 14.7614 9.23858 17 12 17Z" stroke="#F5A623" stroke-width="2" stroke-linecap="round" stroke-linejoin="round"/>
<path d="M12 1V3" stroke="#FFD93E" stroke-width="2" stroke-linecap="round" stroke-linejoin="round"/>
<path d="M12 21V23" stroke="#FFD93E" stroke-width="2" stroke-linecap="round" stroke-linejoin="round"/>
<path d="M4.22 4.22L5.64 5.64" stroke="#FFD93E" stroke-width="2" stroke-linecap="round" stroke-linejoin="round"/>
<path d="M18.36 18.36L19.78 19.78" stroke="#FFD93E" stroke-width="2" stroke-linecap="round" stroke-linejoin="round"/>
<path d="M1 12H3" stroke="#FFD93E" stroke-width="2" stroke-linecap="round" stroke-linejoin="round"/>
<path d="M21 12H23" stroke="#FFD93E" stroke-width="2" stroke-linecap="round" stroke-linejoin="round"/>
<path d="M4.22 19.78L5.64 18.36" stroke="#FFD93E" stroke-width="2" stroke-linecap="round" stroke-linejoin="round"/>
<path d="M18.36 5.64L19.78 4.22" stroke="#FFD93E" stroke-width="2" stroke-linecap="round" stroke-linejoin="round"/>
</g>
<g clip-path="url(#clip3_1_2)">
<path d="M926 -404H-440V364H926V-404Z" fill="#F8F8F8"/>
<path d="M36 17C38.7614 17 41 14.7614 41 12C41 9.23858 38.7614 7 36 7C33.2386 7 31 9.23858 31 12C31 14.7614 33.2386 17 36 17Z" stroke="#333333" stroke-opacity="0.4" stroke-width="2" stroke-linecap="round" stroke-linejoin="round"/>
<path d="M36 1V3" stroke="#333333" stroke-opacity="0.1" stroke-width="2" stroke-linecap="round" stroke-linejoin="round"/>
<path d="M36 21V23" stroke="#333333" stroke-opacity="0.1" stroke-width="2" stroke-linecap="round" stroke-linejoin="round"/>
<path d="M28.22 4.22L29.64 5.64" stroke="#333333" stroke-opacity="0.1" stroke-width="2" stroke-linecap="round" stroke-linejoin="round"/>
<path d="M42.36 18.36L43.78 19.78" stroke="#333333" stroke-opacity="0.1" stroke-width="2" stroke-linecap="round" stroke-linejoin="round"/>
<path d="M25 12H27" stroke="#333333" stroke-opacity="0.1" stroke-width="2" stroke-linecap="round" stroke-linejoin="round"/>
<path d="M45 12H47" stroke="#333333" stroke-opacity="0.1" stroke-width="2" stroke-linecap="round" stroke-linejoin="round"/>
<path d="M28.22 19.78L29.64 18.36" stroke="#333333" stroke-opacity="0.1" stroke-width="2" stroke-linecap="round" stroke-linejoin="round"/>
<path d="M42.36 5.64L43.78 4.22" stroke="#333333" stroke-opacity="0.1" stroke-width="2" stroke-linecap="round" stroke-linejoin="round"/>
</g>
<g clip-path="url(#clip4_1_2)">
<path d="M489 -365H-877V403H489V-365Z" fill="#F8F8F8"/>
<path fill-rule="evenodd" clip-rule="evenodd" d="M62 14.76V3.5C62 2.11929 60.8807 1 59.5 1C58.1193 1 57 2.11929 57 3.5V14.76C55.3519 15.8612 54.6184 17.9111 55.1938 19.8079C55.7691 21.7047 57.5179 23.0017 59.5 23.0017C61.4821 23.0017 63.2309 21.7047 63.8062 19.8079C64.3816 17.9111 63.6481 15.8612 62 14.76Z" stroke="#F5A623" stroke-width="2" stroke-linecap="round" stroke-linejoin="round"/>
<path d="M59.5 22C61.433 22 63 20.433 63 18.5C63 16.567 61.433 15 59.5 15C57.567 15 56 16.567 56 18.5C56 20.433 57.567 22 59.5 22Z" fill="#FFD93E"/>
</g>
<g clip-path="url(#clip5_1_2)">
<path d="M974 -269H-392V499H974V-269Z" fill="#F8F8F8"/>
<path fill-rule="evenodd" clip-rule="evenodd" d="M86.0003 14.76V3.5C86.0003 2.11929 84.8811 1 83.5003 1C82.1196 1 81.0003 2.11929 81.0003 3.5V14.76C79.3522 15.8612 78.6187 17.9111 79.1941 19.8079C79.7695 21.7047 81.5182 23.0017 83.5003 23.0017C85.4825 23.0017 87.2312 21.7047 87.8066 19.8079C88.382 17.9111 87.6485 15.8612 86.0003 14.76Z" stroke="#333333" stroke-opacity="0.4" stroke-width="2" stroke-linecap="round" stroke-linejoin="round"/>
<path d="M83.5 22C85.433 22 87 20.433 87 18.5C87 16.567 85.433 15 83.5 15C81.567 15 80 16.567 80 18.5C80 20.433 81.567 22 83.5 22Z" fill="#333333" fill-opacity="0.1"/>
</g>
</g>
<defs>
<clipPath id="clip0_1_2">
<rect width="120" height="24" fill="white"/>
</clipPath>
<clipPath id="clip1_1_2">
<rect width="24" height="24" fill="white" transform="translate(96)"/>
</clipPath>
<clipPath id="clip2_1_2">
<rect width="24" height="24" fill="white"/>
</clipPath>
<clipPath id="clip3_1_2">
<rect width="24" height="24" fill="white" transform="translate(24)"/>
</clipPath>
<clipPath id="clip4_1_2">
<rect width="24" height="24" fill="white" transform="translate(48)"/>
</clipPath>
<clipPath id="clip5_1_2">
<rect width="24" height="24" fill="white" transform="translate(72)"/>
</clipPath>
</defs>
</svg>
